<svg width="64" height="64" viewBox="0 0 64 64" xmlns="http://www.w3.org/2000/svg"><defs><style>@font-face{font-family:ifont;src:url(http://at.alicdn.com/t/font_1442373896_4754455.eot?#iefix) format(embedded-opentype),url(http://at.alicdn.com/t/font_1442373896_4754455.woff) format(woff),url(http://at.alicdn.com/t/font_1442373896_4754455.ttf) format(truetype),url(http://at.alicdn.com/t/font_1442373896_4754455.svg#ifont) format(svg)}</style></defs><path d="M54.885 35.338H34.423a1.28 1.28 0 0 0-1.28 1.279v20.462c0 .707.573 1.28 1.28 1.28h20.462a1.28 1.28 0 0 0 1.28-1.28V36.617a1.28 1.28 0 0 0-1.28-1.28zM53.605 55.8H35.703V37.896h17.904V55.8zM26.914 35.338H6.45a1.28 1.28 0 0 0-1.28 1.279v20.462c0 .707.574 1.28 1.28 1.28h20.462c.707 0 1.279-.573 1.279-1.28V36.617a1.28 1.28 0 0 0-1.28-1.28zM25.633 55.8H7.73V37.896h17.904V55.8zm1.28-48.575H6.45a1.28 1.28 0 0 0-1.28 1.28v20.46c0 .708.574 1.28 1.28 1.28h20.462c.707 0 1.279-.572 1.279-1.28V8.506c0-.707-.572-1.28-1.28-1.28zm-1.28 20.462H7.73V9.783h17.904v17.904zm34.713-10.328L46.943 3.957a1.28 1.28 0 0 0-1.809 0L31.732 17.359c-.5.5-.5 1.31 0 1.81L45.134 32.57a1.278 1.278 0 0 0 1.81 0l13.402-13.402a1.28 1.28 0 0 0 0-1.809zM46.039 29.857L34.446 18.264 46.039 6.671l11.593 11.593-11.593 11.593z" fill="#fff" class="transform-group"/></svg>