<?xml version="1.0" standalone="no"?><!DOCTYPE svg PUBLIC "-//W3C//DTD SVG 1.1//EN" "http://www.w3.org/Graphics/SVG/1.1/DTD/svg11.dtd"><svg width="200" height="200" viewBox="0 0 200 200" version="1.1" xmlns="http://www.w3.org/2000/svg" xmlns:xlink="http://www.w3.org/1999/xlink"><defs><style type="text/css"><![CDATA[
@font-face { font-family: ifont; src: url(http://at.alicdn.com/t/font_1442373896_4754455.eot?#iefix) format(embedded-opentype), url(http://at.alicdn.com/t/font_1442373896_4754455.woff) format(woff), url(http://at.alicdn.com/t/font_1442373896_4754455.ttf) format(truetype), url(http://at.alicdn.com/t/font_1442373896_4754455.svg#ifont) format(svg); }

]]></style></defs><g class="transform-group"><g transform="scale(0.1953125, 0.1953125)"><path d="M406.597414 629.646444c0-1.319042-0.119727-2.610454-0.336668-3.869121l-22.404266 0 10.637268-16.223496c-3.176342-1.688455-6.795776-2.648316-10.637268-2.648316-12.539594 0-22.73991 10.199293-22.73991 22.740934 0 12.539594 10.200316 22.738887 22.73991 22.738887S406.597414 642.186038 406.597414 629.646444zM966.416512 541.847795c0 0-83.544765 57.369615-148.671041 10.381441 6.29538-12.255115 12.134365-25.038256 17.489326-38.365796 46.686299 2.462075 94.351901-11.342326 117.201306-55.888891l5.752004-11.343349-11.012821-6.411013c-26.955932-15.613606-62.956867-17.753339-93.530187-8.713452-3.781116-32.54216-25.14775-61.144592-50.627051-81.526805l-10.027377-8.05649-8.546653 9.865695c-16.932648 19.720134-22.027689 52.43421-19.72525 77.581959 1.645476 18.410302 7.562233 37.311791 18.905582 52.108798-8.714476 5.258771-18.574031 9.366322-27.287483 12.326746-17.917068 6.083555-37.148062 9.370415-56.05262 9.370415l-39.191604 0 0-83.402525-84.216054 0 0-81.277118 0-2.266623 0-82.188884-86.318948 0 0 82.188884-82.111113 0-2.103918 0-84.214007 0 0 83.544765-82.814124 0 0 83.402525-67.821665 0-1.151219 12.164041c-1.494027 16.041348-1.517563 32.106232 0.024559 47.965431-34.392298 9.997702-80.602759 13.124925-117.615745-21.459754 0 0-20.566408 34.112935-49.643654 39.514969l169.721473 0c3.173273 18.006096 8.475022 35.622312 16.087397 52.490491l7.235798 14.795984 0.820692 1.314948c49.805336 84.48723 137.089261 119.994931 232.261854 119.994931 158.534689 0 293.097408-60.844763 372.07618-188.596356l222.669382 0C1023.978509 581.362764 967.88905 575.890122 966.416512 541.847795zM642.181943 434.280918l6.591115 0 0 58.029648-6.591115 0L642.181943 434.280918zM628.027572 434.280918l6.592139 0 0 58.029648-6.592139 0L628.027572 434.280918zM613.874224 434.280918l6.592139 0 0 58.029648-6.592139 0L613.874224 434.280918zM599.725992 434.280918l6.592139 0 0 58.029648-6.592139 0L599.725992 434.280918zM587.091231 434.280918l6.590092 0 0 58.029648-6.590092 0L587.091231 434.280918zM557.966913 267.255857l6.592139 0 0 58.029648-6.592139 0L557.966913 267.255857zM557.966913 349.440647l6.592139 0 0 58.029648-6.592139 0L557.966913 349.440647zM557.966913 434.280918l6.592139 0 0 58.029648-6.592139 0L557.966913 434.280918zM543.813565 267.255857l6.591115 0 0 58.029648-6.591115 0L543.813565 267.255857zM543.813565 349.440647l6.591115 0 0 58.029648-6.591115 0L543.813565 349.440647zM543.813565 434.280918l6.591115 0 0 58.029648-6.591115 0L543.813565 434.280918zM529.660217 267.255857l6.591115 0 0 58.029648-6.591115 0L529.660217 267.255857zM529.660217 349.440647l6.591115 0 0 58.029648-6.591115 0L529.660217 349.440647zM529.660217 434.280918l6.591115 0 0 58.029648-6.591115 0L529.660217 434.280918zM515.509939 267.255857l6.592139 0 0 58.029648-6.592139 0L515.509939 267.255857zM515.509939 349.440647l6.592139 0 0 58.029648-6.592139 0L515.509939 349.440647zM515.509939 434.280918l6.592139 0 0 58.029648-6.592139 0L515.509939 434.280918zM502.875177 267.255857l6.592139 0 0 58.029648-6.592139 0L502.875177 267.255857zM502.875177 349.440647l6.592139 0 0 58.029648-6.592139 0L502.875177 349.440647zM502.875177 434.280918l6.592139 0 0 58.029648-6.592139 0L502.875177 434.280918zM473.751883 349.440647l6.591115 0 0 58.029648-6.591115 0L473.751883 349.440647zM473.751883 434.280918l6.591115 0 0 58.029648-6.591115 0L473.751883 434.280918zM459.598535 349.440647l6.591115 0 0 58.029648-6.591115 0L459.598535 349.440647zM459.598535 434.280918l6.591115 0 0 58.029648-6.591115 0L459.598535 434.280918zM445.445187 349.440647l6.591115 0 0 58.029648-6.591115 0L445.445187 349.440647zM445.445187 434.280918l6.591115 0 0 58.029648-6.591115 0L445.445187 434.280918zM431.295932 349.440647l6.591115 0 0 58.029648-6.591115 0L431.295932 349.440647zM431.295932 434.280918l6.591115 0 0 58.029648-6.591115 0L431.295932 434.280918zM418.660147 349.440647l6.591115 0 0 58.029648-6.591115 0L418.660147 349.440647zM418.660147 434.280918l6.591115 0 0 58.029648-6.591115 0L418.660147 434.280918zM389.537876 349.440647l6.592139 0 0 58.029648-6.592139 0L389.537876 349.440647zM389.537876 434.280918l6.592139 0 0 58.029648-6.592139 0L389.537876 434.280918zM375.383505 349.440647l6.592139 0 0 58.029648-6.592139 0L375.383505 349.440647zM375.383505 434.280918l6.592139 0 0 58.029648-6.592139 0L375.383505 434.280918zM361.229133 349.440647l6.592139 0 0 58.029648-6.592139 0L361.229133 349.440647zM361.229133 434.280918l6.592139 0 0 58.029648-6.592139 0L361.229133 434.280918zM347.080902 349.440647l6.591115 0 0 58.029648-6.591115 0L347.080902 349.440647zM347.080902 434.280918l6.591115 0 0 58.029648-6.591115 0L347.080902 434.280918zM334.44614 349.440647l6.592139 0 0 58.029648-6.592139 0L334.44614 349.440647zM334.44614 434.280918l6.592139 0 0 58.029648-6.592139 0L334.44614 434.280918zM305.78538 434.280918l6.591115 0 0 58.029648-6.591115 0L305.78538 434.280918zM291.631009 434.280918l6.591115 0 0 58.029648-6.591115 0L291.631009 434.280918zM277.477661 434.280918l6.591115 0 0 58.029648-6.591115 0L277.477661 434.280918zM263.328406 434.280918l6.592139 0 0 58.029648-6.592139 0L263.328406 434.280918zM250.693644 434.280918l6.591115 0 0 58.029648-6.591115 0L250.693644 434.280918zM214.982305 669.337421l3.526313-0.308015c-2.955308-0.333598-4.801353-0.587378-5.240351-0.649799-2.51631-0.358157-4.175089-2.172479-3.699252-4.063549 0.471744-1.880837 2.910283-3.107781 5.4225-2.768043 0.685615 0.096191 67.219961 9.205663 103.999632-6.78145l0.004093-0.002047 0 0c1.39272-0.605797 2.749624-1.24127 4.052293-1.922792 2.108011-1.101077 4.999874-0.711198 6.464225 0.861624 1.464351 1.572822 0.947582 3.745301-1.151219 4.842285-2.033309 1.061169-4.179183 2.02103-6.385431 2.923586l1.471514 3.304256c0 0 28.031427 51.892881 122.264625 98.271164C445.71227 763.045663 301.636897 779.936355 214.982305 669.337421zM351.832112 629.646444c0-17.658172 14.367219-32.026414 32.024367-32.026414 17.658172 0 32.024367 14.368242 32.024367 32.026414 0 17.656125-14.366196 32.024367-32.024367 32.024367C366.198308 661.670811 351.832112 647.302569 351.832112 629.646444zM817.681003 552.184211c-6.112208 11.530614-13.063527 23.420409-16.479323 29.178553L173.375698 581.362764c-0.88209-6.154163-1.533936-12.319583-2.00261-18.343787-0.099261 0.029676-0.201591 0.056282-0.300852 0.085958 28.331255-8.348132 48.466851-21.25714 48.466851-21.25714 75.27952 63.442938 200.745047 0 200.745047 0 94.469582 63.442938 180.866301 0 180.866301 0 127.727033 68.085678 204.294896 0 204.294896 0 3.989871 3.90903 8.083096 7.337105 12.252045 10.346649C817.691236 552.190351 817.687143 552.186258 817.681003 552.184211z" fill="#ffffff"></path></g></g></svg>