<?xml version="1.0" standalone="no"?><!DOCTYPE svg PUBLIC "-//W3C//DTD SVG 1.1//EN" "http://www.w3.org/Graphics/SVG/1.1/DTD/svg11.dtd"><svg width="64" height="64" viewBox="0 0 64 64" version="1.1" xmlns="http://www.w3.org/2000/svg" xmlns:xlink="http://www.w3.org/1999/xlink"><defs><style type="text/css"><![CDATA[
@font-face { font-family: ifont; src: url(http://at.alicdn.com/t/font_1442373896_4754455.eot?#iefix) format(embedded-opentype), url(http://at.alicdn.com/t/font_1442373896_4754455.woff) format(woff), url(http://at.alicdn.com/t/font_1442373896_4754455.ttf) format(truetype), url(http://at.alicdn.com/t/font_1442373896_4754455.svg#ifont) format(svg); }

]]></style></defs><g class="transform-group"><g transform="scale(0.0625, 0.0625)"><path d="M1004.8 358.4l-96-127.936c-3.744-5.024-8.192-9.376-12.8-13.536l0-152.928c0-35.328-28.672-64-64-64l-640 0c-35.36 0-64 28.672-64 64l0 152.96c-4.608 4.128-9.056 8.448-12.8 13.44l-95.968 127.968c-12.416 16.512-19.232 36.96-19.232 57.632l0 32c0 52.928 43.072 96 96 96l0 0 0 416c0 35.328 28.672 64 64 64l704 0c35.328 0 64-28.672 64-64l0-416c52.928 0 96-43.072 96-96l0-32c0-20.672-6.816-41.12-19.2-57.6zM832 64l0 128-640 0 0-128 640 0zM326.176 480l-134.048 0 128-224 70.048 0-64 224zM423.488 256l72.512 0 0 224-136.512 0 64-224zM528 256l72.512 0 64 224-136.512 0 0-224zM633.76 256l70.048 0 128 224-134.048 0-64-224zM64 448l0-32c0-6.944 2.24-13.664 6.4-19.2l96-128c6.048-8.064 15.52-12.8 25.6-12.8l91.264 0-128 224-59.264 0c-17.664 0-32-14.304-32-32zM640 960l-240 0 0-320 240 0 0 320zM864 960l-192 0 0-320c0-17.696-14.368-32-32-32l-240 0c-17.664 0-32 14.304-32 32l0 320-208 0 0-416 704 0 0 416zM960 448c0 17.696-14.304 32-32 32l-59.328 0-128-224 91.328 0c10.048 0 19.552 4.736 25.568 12.8l96 128c4.192 5.536 6.432 12.256 6.432 19.2l0 32z" fill="#ffffff"></path></g></g></svg>