<?xml version="1.0" encoding="utf-8"?>
<!-- Generator: Adobe Illustrator 18.0.0, SVG Export Plug-In . SVG Version: 6.00 Build 0)  -->
<!DOCTYPE svg PUBLIC "-//W3C//DTD SVG 1.1//EN" "http://www.w3.org/Graphics/SVG/1.1/DTD/svg11.dtd">
<svg version="1.1" xmlns="http://www.w3.org/2000/svg" xmlns:xlink="http://www.w3.org/1999/xlink" x="0px" y="0px"
	 viewBox="0 0 200 200" enable-background="new 0 0 200 200" xml:space="preserve">
<g id="Layer_14">
</g>
<g id="volume">
	<rect fill="#748591" width="200" height="200"/>
	<g>
		<g>
			<path fill="#E2E5E8" d="M45.119,109.347h96.578c1.912,0,3.656,0.774,4.911,2.028l-4.844-11.653l-16.129,0.129h-0.025
				c-17.587,0-30.343-10.686-30.343-25.422c0-4.053,0.964-7.889,2.603-11.317H64.603c-5.792,0-7.562,3.43-8.983,7.051
				c-4.214,10.742-15.755,41.616-15.755,41.616C41.152,110.297,43.011,109.347,45.119,109.347z M141.697,116.198H45.11
				c-3.863,0-6.996,3.158-6.996,7.048v20.567c0,3.887,3.133,7.04,6.996,7.04h96.587c3.863,0,6.996-3.152,6.996-7.04v-20.567
				C148.69,119.356,145.557,116.198,141.697,116.198z M135.535,136.168h-19.25v-5.284h19.25V136.168z M152.731,55.031
				c-3.01-4.846-8.347-7.884-14.097-7.884c-5.479,0-10.588,2.763-13.657,7.222c-1.162-0.205-2.338-0.306-3.528-0.306
				c-11.369,0-20.619,9.306-20.619,20.755c0,11.855,10.329,20.138,25.092,20.138h0.014l25.508-0.216l0.259-0.011
				c10.195-0.872,18.183-9.612,18.183-19.911C169.886,64.69,162.494,56.352,152.731,55.031z M151.243,87.826l-25.337,0.213
				c-10.711-0.006-18.203-5.438-18.203-13.219c0-7.629,6.176-13.841,13.746-13.841c1.424,0,2.832,0.219,4.186,0.659l2.896,0.923
				l1.265-2.777c1.58-3.467,5.056-5.719,8.838-5.719c3.785,0,7.249,2.235,8.838,5.699l0.889,1.938l2.107,0.073
				c7.035,0.244,12.545,5.971,12.545,13.047C163.013,81.518,157.856,87.209,151.243,87.826z"/>
		</g>
	</g>
</g>
<g id="influxdb">
</g>
<g id="nodejs">
</g>
<g id="python">
</g>
<g id="golang">
</g>
<g id="fedora">
</g>
<g id="django">
</g>
<g id="centos">
</g>
<g id="postgres">
</g>
<g id="ubuntu">
</g>
<g id="rabbitmq">
</g>
<g id="ruby">
</g>
<g id="rails">
</g>
<g id="php">
</g>
<g id="java">
</g>
<g id="deer-resume">
</g>
<g id="_x32_048">
</g>
<g id="redis">
</g>
<g id="wordpress">
</g>
<g id="ghost">
</g>
<g id="phpmyadmin">
</g>
<g id="mongo-express">
</g>
<g id="earth">
</g>
<g id="nginx">
</g>
<g id="mysql">
</g>
<g id="mongo-db">
</g>
<g id="docker">
</g>
<g id="tomcat">
</g>
</svg>
