<svg width="64" height="64" viewBox="0 0 64 64" xmlns="http://www.w3.org/2000/svg"><defs><style>@font-face{font-family:ifont;src:url(http://at.alicdn.com/t/font_1442373896_4754455.eot?#iefix) format(embedded-opentype),url(http://at.alicdn.com/t/font_1442373896_4754455.woff) format(woff),url(http://at.alicdn.com/t/font_1442373896_4754455.ttf) format(truetype),url(http://at.alicdn.com/t/font_1442373896_4754455.svg#ifont) format(svg)}</style></defs><path d="M6 14a26 8 0 1 0 52 0 26 8 0 1 0-52 0zm52 12c0 4.412-11.637 8-26 8S6 30.425 6 26V16c0 4.412 11.637 8 26 8s26-3.587 26-8v10zm0 12c0 4.412-11.637 8-26 8S6 42.425 6 38V28c0 4.412 11.637 8 26 8s26-3.587 26-8v10zm0 12c0 4.412-11.637 8-26 8S6 54.425 6 50V40c0 4.412 11.637 8 26 8s26-3.587 26-8v10z" fill="#fff" class="transform-group"/></svg>