<svg width="200" height="200" viewBox="0 0 200 200" xmlns="http://www.w3.org/2000/svg"><defs><style>@font-face{font-family:ifont;src:url(http://at.alicdn.com/t/font_1442373896_4754455.eot?#iefix) format(embedded-opentype),url(http://at.alicdn.com/t/font_1442373896_4754455.woff) format(woff),url(http://at.alicdn.com/t/font_1442373896_4754455.ttf) format(truetype),url(http://at.alicdn.com/t/font_1442373896_4754455.svg#ifont) format(svg)}</style></defs><path d="M79.414 122.978c0-.258-.024-.51-.066-.756h-4.376l2.078-3.169a4.413 4.413 0 0 0-2.078-.517 4.446 4.446 0 0 0-4.441 4.442c0 2.449 1.992 4.441 4.441 4.441s4.442-1.992 4.442-4.441zm109.34-17.148s-16.318 11.205-29.038 2.027a89.034 89.034 0 0 0 3.416-7.493c9.118.48 18.428-2.215 22.89-10.916l1.124-2.215-2.15-1.252c-5.266-3.05-12.297-3.468-18.268-1.702-.739-6.356-4.912-11.943-9.889-15.924l-1.958-1.573-1.67 1.927c-3.306 3.851-4.302 10.24-3.852 15.153.322 3.595 1.477 7.287 3.693 10.177-1.702 1.027-3.628 1.83-5.33 2.408-3.5 1.188-7.255 1.83-10.948 1.83h-7.654v-16.29H112.67V49.618H95.812V65.67H62.916v16.317H46.74v16.29H33.495l-.225 2.376a49.443 49.443 0 0 0 .005 9.368c-6.718 1.953-15.743 2.563-22.972-4.191 0 0-4.017 6.662-9.696 7.717h33.149a43.033 43.033 0 0 0 3.142 10.252l1.413 2.89.16.257c9.728 16.502 26.775 23.437 45.364 23.437 30.964 0 57.245-11.884 72.67-36.836h43.491s-10.955-1.068-11.243-7.717zm-63.328-21.01h1.287v11.334h-1.287V84.82zm-2.764 0h1.287v11.334h-1.287V84.82zm-2.765 0h1.288v11.334h-1.288V84.82zm-2.763 0h1.288v11.334h-1.288V84.82zm-2.468 0h1.287v11.334h-1.287V84.82zm-5.688-32.622h1.287v11.334h-1.287V52.198zm0 16.052h1.287v11.334h-1.287V68.25zm0 16.57h1.287v11.334h-1.287V84.82zm-2.764-32.622h1.287v11.334h-1.287V52.198zm0 16.052h1.287v11.334h-1.287V68.25zm0 16.57h1.287v11.334h-1.287V84.82zm-2.765-32.622h1.288v11.334h-1.288V52.198zm0 16.052h1.288v11.334h-1.288V68.25zm0 16.57h1.288v11.334h-1.288V84.82zm-2.763-32.622h1.287v11.334h-1.287V52.198zm0 16.052h1.287v11.334h-1.287V68.25zm0 16.57h1.287v11.334h-1.287V84.82zm-2.468-32.622h1.287v11.334h-1.287V52.198zm0 16.052h1.287v11.334h-1.287V68.25zm0 16.57h1.287v11.334h-1.287V84.82zM92.53 68.25h1.287v11.334H92.53V68.25zm0 16.57h1.287v11.334H92.53V84.82zm-2.765-16.57h1.288v11.334h-1.288V68.25zm0 16.57h1.288v11.334h-1.288V84.82zm-2.764-16.57h1.287v11.334h-1.287V68.25zm0 16.57h1.287v11.334h-1.287V84.82zm-2.764-16.57h1.288v11.334h-1.288V68.25zm0 16.57h1.288v11.334h-1.288V84.82zM81.77 68.25h1.287v11.334H81.77V68.25zm0 16.57h1.287v11.334H81.77V84.82zm-5.688-16.57h1.287v11.334h-1.287V68.25zm0 16.57h1.287v11.334h-1.287V84.82zm-2.765-16.57h1.288v11.334h-1.288V68.25zm0 16.57h1.288v11.334h-1.288V84.82zm-2.764-16.57h1.287v11.334h-1.287V68.25zm0 16.57h1.287v11.334h-1.287V84.82zm-2.764-16.57h1.288v11.334h-1.288V68.25zm0 16.57h1.288v11.334h-1.288V84.82zm-2.467-16.57h1.287v11.334h-1.287V68.25zm0 16.57h1.287v11.334h-1.287V84.82zm-5.598 0h1.287v11.334h-1.287V84.82zm-2.765 0h1.288v11.334h-1.288V84.82zm-2.764 0h1.287v11.334h-1.287V84.82zm-2.764 0h1.288v11.334H51.43V84.82zm-2.467 0h1.287v11.334h-1.287V84.82zm-6.975 45.91l.688-.06a39.003 39.003 0 0 1-1.023-.127c-.492-.07-.815-.424-.723-.794.093-.367.569-.607 1.06-.54.133.018 13.128 1.798 20.312-1.325.273-.119.538-.243.792-.376.412-.215.977-.139 1.263.168.286.308.185.732-.225.946-.397.207-.816.395-1.247.571l.287.646s5.475 10.135 23.88 19.193c0 0-28.14 3.3-45.064-18.302zm26.728-7.752a6.262 6.262 0 0 1 6.255-6.255 6.262 6.262 0 0 1 6.255 6.255 6.262 6.262 0 0 1-6.255 6.255 6.262 6.262 0 0 1-6.255-6.255zm90.986-15.13a145.949 145.949 0 0 1-3.218 5.7H33.862a55.87 55.87 0 0 1-.39-3.583l-.06.016c5.534-1.63 9.467-4.151 9.467-4.151 14.703 12.39 39.208 0 39.208 0 18.45 12.39 35.325 0 35.325 0 24.947 13.298 39.902 0 39.902 0 .779.763 1.578 1.433 2.393 2.02l-.004-.002z" fill="#fff" class="transform-group"/></svg>