<svg width="64" height="64" viewBox="0 0 64 64" xmlns="http://www.w3.org/2000/svg"><defs><style>@font-face{font-family:ifont;src:url(http://at.alicdn.com/t/font_1442373896_4754455.eot?#iefix) format(embedded-opentype),url(http://at.alicdn.com/t/font_1442373896_4754455.woff) format(woff),url(http://at.alicdn.com/t/font_1442373896_4754455.ttf) format(truetype),url(http://at.alicdn.com/t/font_1442373896_4754455.svg#ifont) format(svg)}</style></defs><path d="M25.412 39.353c0-.083-.007-.163-.02-.242H23.99l.665-1.014a1.423 1.423 0 0 0-2.086 1.256c0 .784.637 1.421 1.421 1.421s1.421-.637 1.421-1.421zm34.989-5.488s-5.222 3.586-9.292.65c.394-.767.758-1.566 1.093-2.399 2.918.154 5.897-.708 7.325-3.493l.36-.709-.689-.4c-1.684-.976-3.934-1.11-5.845-.545-.237-2.034-1.572-3.821-3.164-5.095l-.627-.504-.534.617c-1.059 1.232-1.377 3.277-1.233 4.849.103 1.15.473 2.332 1.182 3.256a8.939 8.939 0 0 1-1.706.77 10.99 10.99 0 0 1-3.503.587h-2.45v-5.213h-5.263V15.878H30.66v5.136H20.133v5.222h-5.176v5.213h-4.239l-.072.76a15.822 15.822 0 0 0 .002 2.998c-2.15.625-5.038.82-7.351-1.342 0 0-1.285 2.133-3.103 2.47h10.608a13.77 13.77 0 0 0 1.005 3.28l.452.926.052.082c3.113 5.28 8.568 7.5 14.516 7.5 9.909 0 18.319-3.803 23.255-11.788h13.917s-3.506-.342-3.598-2.47zm-20.265-6.722h.412v3.626h-.412v-3.626zm-.884 0h.412v3.626h-.412v-3.626zm-.885 0h.412v3.626h-.412v-3.626zm-.884 0h.412v3.626h-.412v-3.626zm-.79 0h.412v3.626h-.412v-3.626zm-1.82-10.44h.412v3.627h-.412v-3.627zm0 5.137h.412v3.627h-.412V21.84zm0 5.303h.412v3.626h-.412v-3.626zm-.885-10.44h.412v3.627h-.412v-3.627zm0 5.137h.412v3.627h-.412V21.84zm0 5.303h.412v3.626h-.412v-3.626zm-.884-10.44h.412v3.627h-.412v-3.627zm0 5.137h.412v3.627h-.412V21.84zm0 5.303h.412v3.626h-.412v-3.626zm-.885-10.44h.412v3.627h-.412v-3.627zm0 5.137h.412v3.627h-.412V21.84zm0 5.303h.412v3.626h-.412v-3.626zm-.79-10.44h.413v3.627h-.412v-3.627zm0 5.137h.413v3.627h-.412V21.84zm0 5.303h.413v3.626h-.412v-3.626zm-1.82-5.303h.412v3.627h-.412V21.84zm0 5.303h.412v3.626h-.412v-3.626zm-.884-5.303h.412v3.627h-.412V21.84zm0 5.303h.412v3.626h-.412v-3.626zm-.885-5.303h.412v3.627h-.412V21.84zm0 5.303h.412v3.626h-.412v-3.626zm-.884-5.303h.412v3.627h-.412V21.84zm0 5.303h.412v3.626h-.412v-3.626zm-.79-5.303h.412v3.627h-.412V21.84zm0 5.303h.412v3.626h-.412v-3.626zm-1.82-5.303h.412v3.627h-.412V21.84zm0 5.303h.412v3.626h-.412v-3.626zm-.885-5.303h.412v3.627h-.412V21.84zm0 5.303h.412v3.626h-.412v-3.626zm-.884-5.303h.412v3.627h-.412V21.84zm0 5.303h.412v3.626h-.412v-3.626zm-.884-5.303h.412v3.627h-.412V21.84zm0 5.303h.412v3.626h-.412v-3.626zm-.79-5.303h.412v3.627h-.412V21.84zm0 5.303h.412v3.626h-.412v-3.626zm-1.791 0h.412v3.626h-.412v-3.626zm-.885 0h.412v3.626h-.412v-3.626zm-.885 0h.412v3.626h-.412v-3.626zm-.884 0h.412v3.626h-.412v-3.626zm-.79 0h.412v3.626h-.412v-3.626zm-2.232 14.69l.22-.019c-.184-.02-.3-.036-.327-.04-.157-.023-.26-.136-.23-.254.029-.118.181-.194.338-.173.043.006 4.201.575 6.5-.424.087-.038.172-.078.253-.12.132-.07.313-.045.404.053.092.099.06.235-.071.303a4.755 4.755 0 0 1-.4.183l.092.206s1.752 3.244 7.642 6.142c0 0-9.005 1.056-14.42-5.856zm8.554-2.48c0-1.104.897-2.002 2.001-2.002 1.104 0 2.002.898 2.002 2.002a2.004 2.004 0 0 1-2.002 2.001 2.004 2.004 0 0 1-2.001-2.001zm29.115-4.841c-.382.72-.816 1.463-1.03 1.823H10.836c-.055-.384-.096-.77-.125-1.146l-.019.005c1.77-.522 3.03-1.329 3.03-1.329 4.704 3.966 12.546 0 12.546 0 5.904 3.966 11.304 0 11.304 0 7.983 4.256 12.768 0 12.768 0 .25.245.506.46.766.647z" fill="#272636" class="transform-group"/></svg>