<svg width="64" height="64" viewBox="0 0 64 64" xmlns="http://www.w3.org/2000/svg"><defs><style>@font-face{font-family:ifont;src:url(http://at.alicdn.com/t/font_1442373896_4754455.eot?#iefix) format(embedded-opentype),url(http://at.alicdn.com/t/font_1442373896_4754455.woff) format(woff),url(http://at.alicdn.com/t/font_1442373896_4754455.ttf) format(truetype),url(http://at.alicdn.com/t/font_1442373896_4754455.svg#ifont) format(svg)}</style></defs><path d="M4.571 50.286h36.572v-4.572H4.57v4.572zm0-18.286h36.572v-4.571H4.57V32zm56 16q0-1.429-1-2.429t-2.428-1-2.429 1-1 2.429 1 2.429 2.429 1 2.428-1 1-2.429zm-56-34.286h36.572V9.143H4.57v4.571zm56 16q0-1.428-1-2.428t-2.428-1-2.429 1-1 2.428 1 2.429 2.429 1 2.428-1 1-2.429zm0-18.285q0-1.429-1-2.429t-2.428-1-2.429 1-1 2.429 1 2.428 2.429 1 2.428-1 1-2.428zM64 41.143v13.714H0V41.143h64zm0-18.286v13.714H0V22.857h64zm0-18.286v13.715H0V4.57h64z" fill="#272636" class="transform-group"/></svg>