<svg width="64" height="64" viewBox="0 0 64 64" xmlns="http://www.w3.org/2000/svg"><defs><style>@font-face{font-family:ifont;src:url(http://at.alicdn.com/t/font_1442373896_4754455.eot?#iefix) format(embedded-opentype),url(http://at.alicdn.com/t/font_1442373896_4754455.woff) format(woff),url(http://at.alicdn.com/t/font_1442373896_4754455.ttf) format(truetype),url(http://at.alicdn.com/t/font_1442373896_4754455.svg#ifont) format(svg)}</style></defs><path d="M62.8 22.4l-6-7.996a5.934 5.934 0 0 0-.8-.846V4c0-2.208-1.792-4-4-4H12a4 4 0 0 0-4 4v9.56a5.89 5.89 0 0 0-.8.84l-5.998 7.998A6.026 6.026 0 0 0 0 26v2c0 3.308 2.692 6 6 6v26c0 2.208 1.792 4 4 4h44c2.208 0 4-1.792 4-4V34c3.308 0 6-2.692 6-6v-2c0-1.292-.426-2.57-1.2-3.6zM52 4v8H12V4h40zM20.386 30h-8.378l8-14h4.378l-4 14zm6.082-14H31v14h-8.532l4-14zM33 16h4.532l4 14H33V16zm6.61 0h4.378l8 14H43.61l-4-14zM4 28v-2c0-.434.14-.854.4-1.2l6-8c.378-.504.97-.8 1.6-.8h5.704l-8 14H6a2 2 0 0 1-2-2zm36 32H25V40h15v20zm14 0H42V40a2 2 0 0 0-2-2H25a2 2 0 0 0-2 2v20H10V34h44v26zm6-32c0 1.106-.894 2-2 2h-3.708l-8-14H52c.628 0 1.222.296 1.598.8l6 8c.262.346.402.766.402 1.2v2z" fill="#fff" class="transform-group"/></svg>