<svg width="64" height="64" viewBox="0 0 64 64" xmlns="http://www.w3.org/2000/svg"><defs><style>@font-face{font-family:ifont;src:url(http://at.alicdn.com/t/font_1442373896_4754455.eot?#iefix) format(embedded-opentype),url(http://at.alicdn.com/t/font_1442373896_4754455.woff) format(woff),url(http://at.alicdn.com/t/font_1442373896_4754455.ttf) format(truetype),url(http://at.alicdn.com/t/font_1442373896_4754455.svg#ifont) format(svg)}</style></defs><path d="M62.8 22.4l-6.001-7.996a5.961 5.961 0 0 0-.8-.847V4c0-2.208-1.792-4-4-4h-40a4 4 0 0 0-4 4v9.56a5.982 5.982 0 0 0-.8.84l-5.997 7.997A6.028 6.028 0 0 0 0 25.999v2C0 31.307 2.692 34 6 34v26c0 2.208 1.792 4 4 4h44c2.208 0 4-1.792 4-4V34c3.307 0 6-2.692 6-6v-2.001a6.03 6.03 0 0 0-1.2-3.6zM51.998 4v8h-40V4h40zM20.386 30H12.01l8-14h4.377l-4 14zm6.081-14H31v14h-8.533l4-14zM33 16h4.532l4 14H33V16zm6.61 0h4.377l8 14H43.61l-4-14zM3.999 28v-2.001c0-.434.14-.854.402-1.2l6-8c.378-.505.97-.8 1.6-.8h5.704l-8 14H6a2 2 0 0 1-2.001-2zm36 31.999H25v-20h15v20zm14 0H42v-20c0-1.106-.898-2-2-2H25a2 2 0 0 0-2 2v20h-13v-26h44v26zm6-32c0 1.106-.894 2.001-2 2.001H54.29l-8-14h5.708a1.99 1.99 0 0 1 1.597.8l6 8c.263.345.403.765.403 1.2v2z" fill="#272636" class="transform-group"/></svg>