<svg xmlns="http://www.w3.org/2000/svg" viewBox="0 0 200 200"><path fill="#748591" d="M0 0h200v200H0z"/><path fill="#E2E5E8" d="M45.119 109.347h96.578c1.912 0 3.656.774 4.911 2.028l-4.844-11.653-16.129.129h-.025c-17.587 0-30.343-10.686-30.343-25.422 0-4.053.964-7.889 2.603-11.317H64.603c-5.792 0-7.562 3.43-8.983 7.051-4.214 10.742-15.755 41.616-15.755 41.616 1.287-1.482 3.146-2.432 5.254-2.432zm96.578 6.851H45.11c-3.863 0-6.996 3.158-6.996 7.048v20.567c0 3.887 3.133 7.04 6.996 7.04h96.587c3.863 0 6.996-3.152 6.996-7.04v-20.567c-.003-3.89-3.136-7.048-6.996-7.048zm-6.162 19.97h-19.25v-5.284h19.25v5.284zm17.196-81.137c-3.01-4.846-8.347-7.884-14.097-7.884-5.479 0-10.588 2.763-13.657 7.222a20.267 20.267 0 0 0-3.528-.306c-11.369 0-20.619 9.306-20.619 20.755 0 11.855 10.329 20.138 25.092 20.138h.014l25.508-.216.259-.011c10.195-.872 18.183-9.612 18.183-19.911 0-10.128-7.392-18.466-17.155-19.787zm-1.488 32.795l-25.337.213c-10.711-.006-18.203-5.438-18.203-13.219 0-7.629 6.176-13.841 13.746-13.841 1.424 0 2.832.219 4.186.659l2.896.923 1.265-2.777c1.58-3.467 5.056-5.719 8.838-5.719 3.785 0 7.249 2.235 8.838 5.699l.889 1.938 2.107.073c7.035.244 12.545 5.971 12.545 13.047 0 6.696-5.157 12.387-11.77 13.004z"/></svg>